#!OML:ASF I:\Actors\actors\Patient Classification 1\Patient 1\Session 1\Subject1.ASF
:FULLY-SPECIFIED
:DEGREES
251
root 0.826422 17.5117 8.56581 7.83423 0.0920758 -9.06908
lowerback -3.0372 0.96025 5.60925
upperback -4.09462 1.27855 3.49093
thorax -2.48443 0.541718 0.469969
lowerneck -6.55272 -3.63638 -2.27262
upperneck 50.9374 -8.7738 6.23881
head 23.484 -3.10265 2.25071
rclavicle -1.83907e-014 2.29596e-014
rhumerus 7.48381 57.3329 -94.9847
rradius 144.172
rwrist -55.8154
rhand -14.4919 -73.4369
rfingers 7.12502
rthumb 11.6547 -616.907
lclavicle -1.83907e-014 2.29596e-014
lhumerus -49.2653 -58.4796 128.06
lradius 89.1229
lwrist 77.914
lhand 3.65663 13.3137
lfingers 7.12502
lthumb 29.0878 41.0623
rfemur -3.51624 24.4731 26.1773
rtibia 4.308
rfoot -12.5212 -22.8909
rtoes 2.07194
lfemur 4.40098 -41.798 -10.2104
ltibia -3.33111
lfoot -17.9497 48.2714
ltoes 5.5528
252
root 0.820175 17.5138 8.56107 7.84377 0.0983918 -9.12476
lowerback -2.90889 1.00171 5.68155
upperback -4.05957 1.34137 3.46031
thorax -2.51607 0.570412 0.396863
lowerneck -6.48959 -3.65844 -2.09696
upperneck 50.883 -8.81514 6.17489
head 23.3767 -3.08949 2.16776
rclavicle 1.05604e-015 -4.72114e-014
rhumerus 5.56379 56.6604 -96.9353
rradius 144.08
rwrist -55.7502
rhand -14.0203 -73.6052
rfingers 7.12502
rthumb 12.1095 -616.765
lclavicle 1.05604e-015 -4.72114e-014
lhumerus -49.4809 -58.6434 128.236
lradius 89.1344
lwrist 77.8313
lhand 3.71005 13.1545
lfingers 7.12502
lthumb 29.1388 40.8943
rfemur -3.58622 24.4713 26.2462
rtibia 4.35649
rfoot -12.4789 -22.8727
rtoes 2.082
lfemur 4.32043 -41.7825 -10.0512
ltibia -3.31699
lfoot -18.0444 48.2379
ltoes 5.67506
253
root 0.814311 17.5153 8.55621 7.8503 0.118659 -9.16372
lowerback -2.79549 1.00807 5.69507
upperback -4.00896 1.35667 3.47452
thorax -2.52675 0.578304 0.402393
lowerneck -6.53964 -3.64074 -2.00244
upperneck 50.9073 -8.7888 6.12651
head 23.4023 -3.06302 2.12744
rclavicle -1.758e-015 3.03147e-014
rhumerus 5.59657 56.6801 -96.8616
rradius 144.027
rwrist -55.8062
rhand -14.0518 -73.5663
rfingers 7.12502
rthumb 12.0792 -616.802
lclavicle -1.758e-015 3.03147e-014
lhumerus -49.5379 -58.6859 128.301
lradius 89.167
lwrist 77.739
lhand 3.49876 13.1672
lfingers 7.12502
lthumb 28.937 40.9417
rfemur -3.64247 24.4871 26.2985
rtibia 4.39285
rfoot -12.4524 -22.8985
rtoes 2.00098
lfemur 4.24257 -41.7798 -9.91593
ltibia -3.32013
lfoot -17.9074 48.2542
ltoes 5.44054
254
root 0.810627 17.5148 8.55797 7.85753 0.131396 -9.08292
lowerback -2.81313 0.977738 5.59454
upperback -3.93268 1.31101 3.4822
thorax -2.4407 0.560929 0.46623
lowerneck -6.63735 -3.57506 -2.04581
upperneck 50.9752 -8.69648 6.16929
head 23.5152 -3.03011 2.18281
rclavicle -1.5002e-015 1.41137e-014
rhumerus 7.68889 57.4778 -94.6434
rradius 144.101
rwrist -56.1235
rhand -14.726 -73.4502
rfingers 7.12502
rthumb 11.429 -616.881
lclavicle -1.5002e-015 1.41137e-014
lhumerus -49.4633 -58.639 128.249
lradius 89.1949
lwrist 77.6396
lhand 3.23061 13.2248
lfingers 7.12502
lthumb 28.6809 41.043
rfemur -3.62795 24.4365 26.2182
rtibia 4.36472
rfoot -12.4557 -22.8814
rtoes 2.00199
lfemur 4.26885 -41.8924 -10.0359
ltibia -3.31514
lfoot -17.9305 48.3514
ltoes 5.38474
255
root 0.80701 17.5145 8.56049 7.8623 0.127404 -9.00725
lowerback -2.8456 0.974077 5.53445
upperback -3.86968 1.29942 3.44841
thorax -2.35733 0.558543 0.465313
lowerneck -6.65134 -3.52816 -2.05309
upperneck 50.9764 -8.64049 6.22652
head 23.5254 -3.00438 2.22878
rclavicle 1.58065e-014 1.86858e-014
rhumerus 7.76397 57.5895 -94.5851
rradius 144.079
rwrist -56.1474
rhand -14.7713 -73.6148
rfingers 7.12502
rthumb 11.3853 -616.714
lclavicle 1.58065e-014 1.86858e-014
lhumerus -49.4869 -58.6684 128.271
lradius 89.2026
lwrist 77.5357
lhand 3.20998 13.215
lfingers 7.12502
lthumb 28.6612 41.0365
rfemur -3.61122 24.4325 26.1483
rtibia 4.35582
rfoot -12.4645 -22.8783
rtoes 1.9895
lfemur 4.30122 -42.0029 -10.1566
ltibia -3.29159
lfoot -18.1229 48.4207
ltoes 5.54161
256
root 0.803394 17.5147 8.56059 7.88233 0.124451 -9.00607
lowerback -2.83429 1.00694 5.56804
upperback -3.84597 1.34151 3.3998
thorax -2.33587 0.578668 0.396846
lowerneck -6.57365 -3.51019 -1.92085
upperneck 50.9298 -8.61576 6.19128
head 23.4203 -2.97278 2.18486
rclavicle 7.42802e-015 -9.93923e-016
rhumerus 5.79202 56.9636 -96.6716
rradius 143.935
rwrist -55.8781
rhand -14.1987 -73.8704
rfingers 7.12502
rthumb 11.9375 -616.49
lclavicle 7.42802e-015 -9.93923e-016
lhumerus -49.6378 -58.7955 128.406
lradius 89.1906
lwrist 77.4506
lhand 3.35773 13.1603
lfingers 7.12502
lthumb 28.8023 40.9579
rfemur -3.63682 24.4616 26.1538
rtibia 4.36882
rfoot -12.4828 -22.8918
rtoes 2.21448
lfemur 4.27693 -42.0341 -10.1323
ltibia -3.28002
lfoot -18.1708 48.4438
ltoes 5.6136
257
root 0.801433 17.5141 8.56151 7.91566 0.111558 -9.01906
lowerback -2.83136 1.01284 5.58188
upperback -3.82935 1.34856 3.40822
thorax -2.32001 0.582463 0.397948
lowerneck -6.55314 -3.48119 -1.90139
upperneck 50.9156 -8.56293 6.18281
head 23.386 -2.94992 2.18607
rclavicle -4.62019e-015 -3.20043e-014
rhumerus 7.12302 57.4587 -95.2244
rradius 143.991
rwrist -56.1713
rhand -14.717 -73.6251
rfingers 7.12502
rthumb 11.4376 -616.707
lclavicle -4.62019e-015 -3.20043e-014
lhumerus -49.6138 -58.8132 128.405
lradius 89.164
lwrist 77.3807
lhand 3.45082 13.1884
lfingers 7.12502
lthumb 28.8913 40.9708
rfemur -3.67858 24.4195 26.1583
rtibia 4.37842
rfoot -12.5036 -22.8249
rtoes 2.37653
lfemur 4.2522 -42.0141 -10.0943
ltibia -3.29345
lfoot -18.0663 48.4666
ltoes 5.58054
258
root 0.799823 17.5138 8.5627 7.92945 0.080591 -9.02934
lowerback -2.82137 1.04836 5.60205
upperback -3.80791 1.39493 3.39173
thorax -2.30101 0.605501 0.370137
lowerneck -6.58406 -3.5017 -2.03924
upperneck 50.9373 -8.67429 6.40964
head 23.4903 -2.996 2.32456
rclavicle -1.84808e-014 1.07344e-014
rhumerus 5.80619 57.0929 -96.5532
rradius 143.976
rwrist -56.0436
rhand -14.3788 -73.6699
rfingers 7.12502
rthumb 11.7638 -616.68
lclavicle -1.84808e-014 1.07344e-014
lhumerus -49.6684 -58.8814 128.455
lradius 89.153
lwrist 77.3452
lhand 3.4706 13.2172
lfingers 7.12502
lthumb 28.9102 40.9964
rfemur -3.70453 24.3452 26.1653
rtibia 4.39606
rfoot -12.4597 -22.7256
rtoes 2.09258
lfemur 4.26114 -41.9703 -10.0782
ltibia -3.31503
lfoot -18.0166 48.4691
ltoes 5.56526
259
root 0.797179 17.5141 8.56404 7.92875 0.0375453 -9.03007
lowerback -2.80344 1.07581 5.58381
upperback -3.78674 1.43187 3.38764
thorax -2.28802 0.624872 0.376187
lowerneck -6.59722 -3.50923 -2.21641
upperneck 50.9565 -8.76342 6.65948
head 23.5916 -3.04053 2.48978
rclavicle 3.37313e-015 -1.30204e-014
rhumerus 5.80953 57.0856 -96.5066
rradius 144.019
rwrist -56.1559
rhand -14.4216 -73.6749
rfingers 7.12502
rthumb 11.7226 -616.673
lclavicle 3.37313e-015 -1.30204e-014
lhumerus -49.723 -58.9196 128.508
lradius 89.1456
lwrist 77.3206
lhand 3.40774 13.0963
lfingers 7.12502
lthumb 28.8501 40.8857
rfemur -3.71566 24.3161 26.1727
rtibia 4.40915
rfoot -12.3849 -22.6735
rtoes 1.88143
lfemur 4.30162 -41.9624 -10.0899
ltibia -3.33501
lfoot -18.0603 48.505
ltoes 5.54181
